<?xml version="1.0" encoding="UTF-8"?>
<!DOCTYPE svg PUBLIC "-//W3C//DTD SVG 1.1//EN" "http://www.w3.org/Graphics/SVG/1.1/DTD/svg11.dtd">
<!-- Creator: CorelDRAW -->
<svg xmlns="http://www.w3.org/2000/svg" xml:space="preserve" width="200mm" height="200mm" version="1.1" style="shape-rendering:geometricPrecision; text-rendering:geometricPrecision; image-rendering:optimizeQuality; fill-rule:evenodd; clip-rule:evenodd"
viewBox="0 0 20000 20000"
 xmlns:xlink="http://www.w3.org/1999/xlink"
 xmlns:xodm="http://www.corel.com/coreldraw/odm/2003">
 <defs>
  <style type="text/css">
   <![CDATA[
    .fil0 {fill:#FEFEFE}
   ]]>
  </style>
 </defs>
 <g id="Layer_x0020_1">
  <metadata id="CorelCorpID_0Corel-Layer"/>
  <g id="_2356457633840">
   <path class="fil0" d="M608.32 11441.61l0 62.06 0 5271.24 1482.72 0 0 -2087.91 1573.51 0 0 -1127.16 -1573.51 0 0 -938.05 2133.28 0 0 -1180.18 -2133.28 0 0 -1738.42 733.79 0c433.77,0 799.41,-78.13 1096.92,-234.49 302.57,-161.37 527.07,-373.19 673.33,-635.45 151.26,-267.3 226.96,-562.35 226.96,-885.1 0,-347.98 -75.7,-655.65 -226.96,-922.92 -151.32,-267.33 -378.28,-476.63 -680.85,-627.9 -297.55,-151.31 -660.67,-226.95 -1089.4,-226.95l-2216.51 0 0 5271.23zm2700.67 -3493.46c0,383.3 -209.25,574.94 -627.87,574.94l-590.08 0 0 -1157.45 590.08 0c418.62,0 627.87,194.15 627.87,582.51z"/>
   <path class="fil0" d="M15430.76 13621.78c-183.91,314.12 -275.83,670.36 -275.83,1068.78 0,398.38 91.92,756.55 275.83,1074.45 187.65,314.12 440.51,561.2 758.42,741.25 317.96,176.21 666.57,264.29 1045.76,264.29 379.23,0 727.84,-88.08 1045.81,-264.29 317.9,-180.05 568.81,-427.13 752.7,-741.25 183.91,-317.9 275.81,-676.07 275.81,-1074.45 0,-398.42 -91.9,-754.66 -275.81,-1068.78 -183.89,-317.9 -434.8,-565.02 -752.7,-741.18 -314.12,-176.23 -662.73,-264.38 -1045.81,-264.38 -379.19,0 -727.8,88.15 -1045.76,264.38 -317.91,176.16 -570.77,423.28 -758.42,741.18zm873.36 1068.78c0,-321.79 82.37,-574.59 247.07,-758.48 164.72,-187.69 392.64,-281.55 683.75,-281.55 287.33,0 513.31,93.86 678.01,281.55 168.63,183.89 252.86,436.69 252.86,758.48 0,314.08 -84.23,565.02 -252.86,752.7 -164.7,187.69 -390.68,281.55 -678.01,281.55 -291.11,0 -519.03,-91.93 -683.75,-275.83 -164.7,-187.66 -247.07,-440.51 -247.07,-758.42z"/>
   <path class="fil0" d="M4584.69 12634.38c-274.9,413.56 -412.3,882.57 -412.3,1407.12 0,524.5 137.4,996.06 412.3,1414.6 280.5,413.57 658.47,738.86 1133.67,975.91 475.29,232 996.38,347.96 1563.19,347.96 566.86,0 1087.96,-115.96 1563.25,-347.96 475.2,-237.05 850.24,-562.34 1125.12,-975.91 274.9,-418.54 412.28,-890.1 412.28,-1414.6 0,-524.55 -137.38,-993.56 -412.28,-1407.12 -274.88,-418.55 -649.92,-743.9 -1125.12,-975.83 -469.54,-232.02 -990.64,-348.07 -1563.25,-348.07 -566.81,0 -1087.9,116.05 -1563.19,348.07 -475.2,231.93 -853.17,557.28 -1133.67,975.83zm1305.48 1407.12c0,-423.66 123.12,-756.48 369.32,-998.6 246.22,-247.1 586.91,-370.67 1022.06,-370.67 429.49,0 767.27,123.57 1013.47,370.67 252.06,242.12 377.97,574.94 377.97,998.6 0,413.51 -125.91,743.89 -377.97,990.99 -246.2,247.1 -583.98,370.68 -1013.47,370.68 -435.15,0 -775.84,-121.03 -1022.06,-363.15 -246.2,-247.06 -369.32,-579.97 -369.32,-998.52z"/>
   <path class="fil0" d="M5398.16 7553.22c-242.12,413.57 -363.15,882.58 -363.15,1407.13 0,524.49 121.03,996.05 363.15,1414.6 247.07,413.56 579.97,738.86 998.52,975.91 418.63,232 877.6,347.96 1376.83,347.96 499.28,0 958.25,-115.96 1376.88,-347.96 418.55,-237.05 748.88,-562.35 990.99,-975.91 242.12,-418.55 363.13,-890.11 363.13,-1414.6 0,-524.55 -121.01,-993.56 -363.13,-1407.13 -242.11,-418.54 -572.44,-743.9 -990.99,-975.82 -413.56,-232.02 -872.53,-348.07 -1376.88,-348.07 -499.23,0 -958.2,116.05 -1376.83,348.07 -418.55,231.92 -751.45,557.28 -998.52,975.82zm1149.84 1407.13c0,-423.66 108.45,-756.49 325.3,-998.6 216.86,-247.1 516.94,-370.67 900.21,-370.67 378.28,0 675.8,123.57 892.65,370.67 222,242.11 332.91,574.94 332.91,998.6 0,413.51 -110.91,743.89 -332.91,990.99 -216.85,247.1 -514.37,370.68 -892.65,370.68 -383.27,0 -683.35,-121.03 -900.21,-363.15 -216.85,-247.07 -325.3,-579.97 -325.3,-998.52z"/>
   <path class="fil0" d="M12082.6 9536.77l158.86 0 1059.09 1966.9 1620.89 -1.87 -1166.98 -2078.48c383.34,-115.99 673.34,-310.16 869.98,-582.52 201.75,-277.37 302.58,-597.62 302.58,-960.75 0,-322.77 -75.62,-612.76 -226.9,-869.96 -151.32,-262.25 -375.79,-466.52 -673.3,-612.76 -297.54,-151.31 -660.67,-226.95 -1089.34,-226.95l-2337.63 0 0 5333.29 16.82 5271.24 2475.42 0 0 -1134.78 -992.67 0 0 -4198.52 -16.82 -1904.84zm733.8 -1013.68l-733.8 0 0 -1112.05 733.8 0c196.7,0 345.49,50.42 446.38,151.28 105.86,95.85 158.85,229.5 158.85,400.94 0,181.57 -50.44,320.26 -151.32,416.08 -100.89,95.82 -252.14,143.75 -453.91,143.75z"/>
   <polygon class="fil0" points="13320.75,13087.85 13320.75,16774.91 14929.12,16774.91 14929.12,13093.77 "/>
   <polygon class="fil0" points="16471.5,7587.96 16471.5,13650.53 17954.26,13650.53 17954.26,7587.96 19376.47,7587.96 19376.47,6170.38 15064.46,6170.38 15064.46,7587.96 "/>
   <path class="fil0" d="M5621.96 5819.6l4976.44 0 0 -2584.37 -9974.45 0 0 2584.37 4672.22 0c53.36,-4.08 107.41,-6.12 162.19,-6.12 55.32,0 109.86,2.04 163.6,6.12zm-907.19 -1327.83c-42.94,44.41 -64.4,107.3 -64.4,188.7 0,79.93 21.46,143.58 64.4,190.94 42.91,45.88 96.94,68.82 162.05,68.82 63.65,0 116.94,-22.94 159.86,-68.82 44.4,-45.88 66.6,-109.54 66.6,-190.94 0,-79.92 -22.2,-142.82 -66.6,-188.7 -42.92,-45.88 -96.21,-68.82 -159.86,-68.82 -65.11,0 -119.14,22.94 -162.05,68.82zm-1760.02 -226.45c0,-50.33 -15.53,-89.55 -46.6,-117.67 -29.63,-29.61 -73.29,-44.4 -131.03,-44.4l-215.32 0 0 326.35 215.32 0c59.25,0 103.6,-14.06 133.23,-42.17 29.63,-28.14 44.4,-68.82 44.4,-122.11zm4114.85 313.03l0 725.99 -435.13 0 0 -668.27c0,-71.05 -18.54,-126.55 -55.52,-166.51 -37,-41.44 -86.57,-62.17 -148.71,-62.17 -65.17,0 -116.19,20.73 -153.24,62.17 -36.98,39.96 -55.49,95.46 -55.49,166.51l0 668.27 -435.16 0 0 -1245.5 435.16 0 0 177.62c38.5,-56.25 90.29,-101.39 155.44,-135.43 65.11,-35.52 139.84,-53.29 224.2,-53.29 143.56,0 257.53,48.1 341.89,144.31 84.41,94.72 126.56,223.49 126.56,386.3zm-1531.21 -519.51l0 1245.5 -435.11 0 0 -173.18c-34.04,57.72 -82.9,103.6 -146.51,137.64 -62.2,34.04 -135.43,51.07 -219.79,51.07 -99.2,0 -189.46,-25.89 -270.87,-77.7 -79.94,-51.82 -143.59,-125.81 -190.97,-222.01 -45.86,-97.69 -68.8,-210.92 -68.8,-339.69 0,-128.76 22.94,-241.25 68.8,-337.45 47.38,-96.21 111.03,-170.21 190.97,-222.03 81.41,-51.79 171.67,-77.68 270.87,-77.68 85.81,0 159.85,17.01 221.98,51.06 62.16,34.03 110.28,79.92 144.32,137.64l0 -173.17 435.11 0zm-1508.8 0l0 1245.5 -435.17 0 0 -1245.5 435.17 0zm-977.14 634.95l352.96 610.55 -486.2 0 -310.81 -577.25 -46.6 0 0 577.25 -435.16 0 0 -1565.2 686.02 0c125.81,0 232.37,22.21 319.67,66.61 87.38,42.93 153.25,102.87 197.65,179.83 44.35,75.48 66.57,160.59 66.57,255.31 0,106.56 -29.57,200.55 -88.77,281.97 -57.74,79.9 -142.86,136.89 -255.33,170.93zm761.76 -750.39c-76.93,0 -139.09,-20.73 -186.45,-62.16 -45.92,-42.93 -68.82,-96.22 -68.82,-159.85 0,-65.13 22.9,-119.16 68.82,-162.06 47.36,-42.94 109.52,-64.39 186.45,-64.39 75.49,0 136.19,21.45 182.05,64.39 47.36,42.9 71.08,96.93 71.08,162.06 0,63.63 -23.72,116.92 -71.08,159.85 -45.86,41.43 -106.56,62.16 -182.05,62.16zm4040.32 -204.26l-255.33 626.08 -290.81 0 106.57 -626.08 439.57 0zm450 1525.23c-87.31,-38.48 -156.9,-90.29 -208.67,-155.42 -50.32,-66.59 -78.43,-141.34 -84.36,-224.22l421.8 0c5.9,39.95 24.45,71.04 55.54,93.24 31.07,22.2 69.56,33.3 115.42,33.3 35.54,0 63.66,-7.4 84.36,-22.2 20.74,-14.8 31.07,-34.04 31.07,-57.72 0,-31.09 -16.99,-54.03 -51.08,-68.82 -34.02,-14.8 -90.26,-31.09 -168.71,-48.84 -88.81,-17.77 -162.78,-37.76 -221.99,-59.94 -59.19,-22.2 -111.03,-58.48 -155.43,-108.79 -42.91,-50.33 -64.36,-118.41 -64.36,-204.26 0,-74 19.95,-140.6 59.94,-199.81 39.95,-60.68 98.39,-108.79 175.39,-144.31 78.45,-35.52 172.43,-53.27 281.94,-53.27 162.81,0 290.87,39.95 384.1,119.88 93.22,79.92 147.26,185 162.04,315.26l-392.96 0c-7.37,-39.97 -25.17,-70.3 -53.29,-91.02 -26.61,-22.21 -62.89,-33.31 -108.76,-33.31 -35.54,0 -62.91,6.66 -82.16,19.99 -17.73,13.32 -26.61,31.81 -26.61,55.49 0,29.61 16.99,52.55 51.04,68.82 34.07,14.81 88.8,30.35 164.3,46.62 90.27,19.25 165.04,40.71 224.23,64.39 60.67,23.68 113.23,62.15 157.64,115.45 45.87,51.81 68.82,122.85 68.82,213.12 0,72.54 -21.49,137.65 -64.4,195.39 -41.45,57.72 -101.39,103.61 -179.84,137.65 -76.94,32.54 -167.96,48.83 -273.08,48.83 -112.47,0 -213.12,-18.51 -301.93,-55.5z"/>
   <polygon class="fil0" points="13320.75,11717.19 13320.75,12850.58 14929.12,12850.58 14929.12,11719.01 "/>
  </g>
 </g>
</svg>
