<svg width="341" height="291" viewBox="0 0 341 291" fill="none" xmlns="http://www.w3.org/2000/svg">
<mask id="path-1-outside-1_48_75" maskUnits="userSpaceOnUse" x="0" y="0" width="341" height="291" fill="black">
<rect fill="white" width="341" height="291"/>
<path d="M331.457 70.9413C324.553 54.6291 309.654 33.4682 294.273 24.0597C258.501 2.06393 213.033 -2.17468 172.477 5.5961C108.769 17.7982 49.0757 58.9961 19.1807 117.052C-1.98025 158.154 -6.34729 220.802 21.8459 260.234C40.2453 285.954 76.7551 295.684 105.719 283.61C125.403 275.422 137.605 257.183 154.623 245.238C176.716 229.696 200.67 234.096 226.294 233.1C299.86 230.307 360.003 138.727 331.457 70.9413M223.276 177.035C217.432 179.283 209.757 180.599 203.464 179.668C197.106 178.673 190.363 174.017 186.991 168.493C175.271 149.484 194.73 127.488 212.712 122.704C221.638 120.327 234.74 121.805 241.836 127.938C260.235 143.832 240.166 170.484 223.276 177.035"/>
</mask>
<path d="M331.457 70.9413C324.553 54.6291 309.654 33.4682 294.273 24.0597C258.501 2.06393 213.033 -2.17468 172.477 5.5961C108.769 17.7982 49.0757 58.9961 19.1807 117.052C-1.98025 158.154 -6.34729 220.802 21.8459 260.234C40.2453 285.954 76.7551 295.684 105.719 283.61C125.403 275.422 137.605 257.183 154.623 245.238C176.716 229.696 200.67 234.096 226.294 233.1C299.86 230.307 360.003 138.727 331.457 70.9413M223.276 177.035C217.432 179.283 209.757 180.599 203.464 179.668C197.106 178.673 190.363 174.017 186.991 168.493C175.271 149.484 194.73 127.488 212.712 122.704C221.638 120.327 234.74 121.805 241.836 127.938C260.235 143.832 240.166 170.484 223.276 177.035" fill="url(#paint0_linear_48_75)"/>
<path d="M294.273 24.0597L293.225 25.7634L293.229 25.7659L294.273 24.0597ZM172.477 5.5961L172.853 7.5604L172.853 7.56037L172.477 5.5961ZM19.1807 117.052L17.4026 116.137L17.4025 116.137L19.1807 117.052ZM21.8459 260.234L20.2189 261.397L20.2192 261.397L21.8459 260.234ZM105.719 283.61L104.951 281.764L104.949 281.764L105.719 283.61ZM154.623 245.238L155.772 246.875L155.774 246.874L154.623 245.238ZM226.294 233.1L226.219 231.102L226.217 231.102L226.294 233.1ZM203.464 179.668L203.154 181.644L203.163 181.645L203.171 181.646L203.464 179.668ZM186.991 168.493L188.698 167.451L188.693 167.444L186.991 168.493ZM212.712 122.704L213.226 124.636L213.226 124.636L212.712 122.704ZM241.836 127.938L240.528 129.451L240.529 129.451L241.836 127.938ZM331.457 70.9413L333.299 70.1618C329.775 61.8363 324.235 52.3228 317.632 43.6959C311.04 35.084 303.295 27.2341 295.316 22.3536L294.273 24.0597L293.229 25.7659C300.631 30.2937 308.027 37.7286 314.456 46.1272C320.873 54.511 326.235 63.7341 329.615 71.7208L331.457 70.9413ZM294.273 24.0597L295.32 22.356C259.018 0.0336844 213.01 -4.20666 172.101 3.63183L172.477 5.5961L172.853 7.56037C213.056 -0.142697 257.985 4.09417 293.225 25.7634L294.273 24.0597ZM172.477 5.5961L172.101 3.63181C107.85 15.9378 47.6061 57.4815 17.4026 116.137L19.1807 117.052L20.9588 117.968C50.5454 60.5108 109.689 19.6585 172.853 7.5604L172.477 5.5961ZM19.1807 117.052L17.4025 116.137C6.67101 136.981 0.220734 163.229 0.00555947 189.253C-0.209555 215.269 5.8082 241.242 20.2189 261.397L21.8459 260.234L23.4728 259.07C9.69037 239.794 3.79507 214.726 4.00542 189.286C4.21571 163.852 10.5294 138.225 20.9589 117.968L19.1807 117.052ZM21.8459 260.234L20.2192 261.397C39.1787 287.901 76.6932 297.876 106.488 285.456L105.719 283.61L104.949 281.764C76.817 293.491 41.3118 284.008 23.4725 259.07L21.8459 260.234ZM105.719 283.61L106.487 285.457C116.671 281.221 124.856 274.409 132.53 267.3C140.277 260.123 147.41 252.744 155.772 246.875L154.623 245.238L153.474 243.601C144.818 249.677 137.341 257.39 129.811 264.366C122.208 271.41 114.451 277.812 104.951 281.764L105.719 283.61ZM154.623 245.238L155.774 246.874C166.434 239.375 177.563 236.657 189.296 235.708C195.179 235.232 201.191 235.201 207.383 235.231C213.551 235.261 219.91 235.35 226.372 235.099L226.294 233.1L226.217 231.102C219.866 231.348 213.622 231.261 207.402 231.231C201.205 231.202 195.043 231.23 188.973 231.721C176.8 232.706 164.905 235.56 153.473 243.602L154.623 245.238ZM226.294 233.1L226.37 235.099C263.966 233.671 297.926 209.592 318.843 177.484C339.761 145.377 347.899 104.832 333.3 70.1651L331.457 70.9413L329.614 71.7175C343.561 104.836 335.901 143.974 315.492 175.301C295.083 206.628 262.189 229.736 226.219 231.102L226.294 233.1ZM223.276 177.035L222.558 175.168C216.947 177.327 209.626 178.558 203.757 177.69L203.464 179.668L203.171 181.646C209.889 182.64 217.917 181.239 223.994 178.902L223.276 177.035ZM203.464 179.668L203.773 177.692C198.023 176.792 191.778 172.497 188.698 167.451L186.991 168.493L185.284 169.536C188.947 175.536 196.189 180.553 203.154 181.644L203.464 179.668ZM186.991 168.493L188.693 167.444C183.364 158.799 185.02 149.411 190.377 141.373C195.766 133.288 204.725 126.898 213.226 124.636L212.712 122.704L212.197 120.771C202.716 123.294 192.955 130.294 187.049 139.155C181.111 148.063 178.898 159.178 185.289 169.543L186.991 168.493ZM212.712 122.704L213.226 124.636C217.387 123.529 222.609 123.304 227.646 124.105C232.7 124.908 237.354 126.708 240.528 129.451L241.836 127.938L243.144 126.425C239.221 123.034 233.777 121.029 228.274 120.154C222.755 119.277 216.963 119.502 212.197 120.771L212.712 122.704ZM241.836 127.938L240.529 129.451C244.749 133.097 246.688 137.271 247.082 141.576C247.48 145.933 246.304 150.579 244.008 155.082C239.388 164.142 230.51 172.084 222.553 175.17L223.276 177.035L223.999 178.9C232.933 175.435 242.534 166.776 247.571 156.899C250.104 151.933 251.551 146.526 251.065 141.212C250.575 135.844 248.123 130.726 243.143 126.424L241.836 127.938Z" fill="white" fill-opacity="0.5" mask="url(#path-1-outside-1_48_75)"/>
<path d="M138.889 50.8399C143.93 46.794 150.417 44.2573 156.486 43.7435C167.564 42.7802 175.399 52.6381 174.949 63.5558C174.339 77.3633 159.183 84.0745 146.531 83.5286C136.706 83.1112 128.614 74.2486 130.251 64.6796C131.247 59.0924 134.522 54.4042 138.889 50.8399Z" fill="white"/>
<path d="M52.2544 153.883C56.0755 138.502 74.3465 128.773 87.3513 139.754C99.746 150.19 93.934 170.87 80.8007 178.448C72.0666 183.489 59.0939 180.118 54.0526 170.773C51.2589 165.604 50.8415 159.535 52.2544 153.883Z" fill="white"/>
<path d="M91.5583 206.352C98.8474 220.159 93.9987 241.449 76.2415 242.926C58.4843 244.403 48.5621 223.499 53.1539 208.214C57.7457 192.994 76.5626 190.489 87.1591 200.508C88.9573 202.21 90.4344 204.168 91.5583 206.352Z" fill="white"/>
<path d="M122.224 108.222C117.439 117.02 106.297 124.694 95.9891 123.41C83.0485 121.805 77.9751 106.391 83.5944 95.3775C91.301 80.2854 115.448 74.2486 123.54 92.8086C125.756 97.9142 124.889 103.373 122.224 108.222Z" fill="white"/>
<defs>
<linearGradient id="paint0_linear_48_75" x1="2" y1="144.811" x2="338.699" y2="144.811" gradientUnits="userSpaceOnUse">
<stop stop-color="#00BBA7"/>
<stop offset="1" stop-color="#00AEFF"/>
</linearGradient>
</defs>
</svg>
