<svg width="253" height="347" viewBox="0 0 253 347" fill="none" xmlns="http://www.w3.org/2000/svg">
<path d="M78.8811 227.774C62.6652 227.132 45.4218 234.517 34.8895 248.228C23.9719 262.421 24.293 280.596 23.8434 297.615C23.5865 306.863 25.1279 319.771 18.4167 327.285C15.3983 330.657 12.2194 331.363 8.10921 331.877C6.50367 332.069 -1.33133 330.849 1.62285 335.345C7.24222 343.918 28.1463 346.102 37.1051 346.487C61.1881 347.579 84.8858 336.918 100.781 318.904C102.418 317.01 103.992 315.051 105.469 313.028C117.318 296.716 124.253 273.596 116.643 254.169C109.772 236.669 94.808 228.384 78.8811 227.774" fill="white"/>
<mask id="mask0_48_76" style="mask-type:luminance" maskUnits="userSpaceOnUse" x="0" y="227" width="120" height="120">
<mask id="path-2-inside-1_48_76" fill="white">
<path d="M78.8811 227.774C62.6652 227.132 45.4218 234.517 34.8895 248.228C23.9719 262.421 24.293 280.596 23.8434 297.615C23.5865 306.863 25.1279 319.771 18.4167 327.285C15.3983 330.657 12.2194 331.363 8.10921 331.877C6.50367 332.069 -1.33133 330.849 1.62285 335.345C7.24222 343.918 28.1463 346.102 37.1051 346.487C61.1881 347.579 84.8858 336.918 100.781 318.904C102.418 317.01 103.992 315.051 105.469 313.028C117.318 296.716 124.253 273.596 116.643 254.169C109.772 236.669 94.808 228.384 78.8811 227.774"/>
</mask>
<path d="M78.8811 227.774C62.6652 227.132 45.4218 234.517 34.8895 248.228C23.9719 262.421 24.293 280.596 23.8434 297.615C23.5865 306.863 25.1279 319.771 18.4167 327.285C15.3983 330.657 12.2194 331.363 8.10921 331.877C6.50367 332.069 -1.33133 330.849 1.62285 335.345C7.24222 343.918 28.1463 346.102 37.1051 346.487C61.1881 347.579 84.8858 336.918 100.781 318.904C102.418 317.01 103.992 315.051 105.469 313.028C117.318 296.716 124.253 273.596 116.643 254.169C109.772 236.669 94.808 228.384 78.8811 227.774" fill="white"/>
<path d="M34.8895 248.228L35.6821 248.838L35.6825 248.838L34.8895 248.228ZM23.8434 297.615L24.843 297.642L24.8431 297.641L23.8434 297.615ZM18.4167 327.285L19.1618 327.952L19.1626 327.951L18.4167 327.285ZM8.10921 331.877L8.22835 332.87L8.23324 332.869L8.10921 331.877ZM1.62285 335.345L2.45921 334.797L2.45855 334.796L1.62285 335.345ZM37.1051 346.487L37.1504 345.488L37.1481 345.488L37.1051 346.487ZM100.781 318.904L101.53 319.566L101.537 319.558L100.781 318.904ZM105.469 313.028L106.276 313.618L106.278 313.616L105.469 313.028ZM116.643 254.169L117.574 253.804L117.574 253.803L116.643 254.169ZM78.8811 227.774L78.9207 226.775C62.3977 226.12 44.8368 233.637 34.0965 247.619L34.8895 248.228L35.6825 248.838C46.0068 235.397 62.9328 228.143 78.8415 228.773L78.8811 227.774ZM34.8895 248.228L34.0969 247.619C22.9383 262.125 23.2902 280.687 22.8438 297.588L23.8434 297.615L24.8431 297.641C25.2957 280.506 25.0054 262.718 35.6821 248.838L34.8895 248.228ZM23.8434 297.615L22.8438 297.587C22.7115 302.348 23.038 307.711 22.5546 313.009C22.0756 318.258 20.812 323.102 17.6709 326.619L18.4167 327.285L19.1626 327.951C22.7326 323.954 24.0539 318.587 24.5463 313.191C25.0342 307.844 24.7184 302.129 24.843 297.642L23.8434 297.615ZM18.4167 327.285L17.6717 326.618C14.9019 329.712 12.0304 330.379 7.98517 330.884L8.10921 331.877L8.23324 332.869C12.4083 332.347 15.8947 331.601 19.1618 327.952L18.4167 327.285ZM8.10921 331.877L7.99006 330.884C7.86724 330.899 7.63532 330.903 7.26533 330.897C6.86312 330.89 6.54028 330.878 6.0216 330.868C5.103 330.851 3.98953 330.854 3.00108 331.009C2.50534 331.087 2.00082 331.209 1.54987 331.408C1.10115 331.606 0.64315 331.908 0.33 332.382C-0.360685 333.427 -0.00956912 334.682 0.787144 335.894L1.62285 335.345L2.45855 334.796C2.13211 334.299 2.00863 333.959 1.97427 333.751C1.94429 333.568 1.98306 333.508 1.99854 333.485C2.02957 333.438 2.11997 333.342 2.35736 333.238C2.59252 333.134 2.91184 333.048 3.31119 332.985C4.11291 332.859 5.07459 332.851 5.98429 332.868C6.37977 332.875 6.90936 332.891 7.23139 332.897C7.58566 332.903 7.94979 332.903 8.22835 332.87L8.10921 331.877ZM1.62285 335.345L0.786487 335.893C2.3299 338.248 4.86869 340.091 7.83769 341.546C10.8181 343.007 14.3157 344.117 17.8817 344.96C25.014 346.645 32.5482 347.292 37.0622 347.486L37.1051 346.487L37.1481 345.488C32.7032 345.297 25.306 344.659 18.3417 343.013C14.8593 342.19 11.5174 341.123 8.71787 339.751C5.90696 338.373 3.72548 336.729 2.45921 334.797L1.62285 335.345ZM37.1051 346.487L37.0598 347.486C61.4618 348.592 85.4465 337.794 101.53 319.566L100.781 318.904L100.031 318.242C84.3251 336.042 60.9144 346.565 37.1504 345.488L37.1051 346.487ZM100.781 318.904L101.537 319.558C103.19 317.645 104.781 315.665 106.276 313.618L105.469 313.028L104.661 312.438C103.202 314.436 101.646 316.374 100.024 318.25L100.781 318.904ZM105.469 313.028L106.278 313.616C118.24 297.147 125.355 273.665 117.574 253.804L116.643 254.169L115.712 254.534C123.152 273.526 116.395 296.284 104.66 312.44L105.469 313.028ZM116.643 254.169L117.574 253.803C110.537 235.882 95.1849 227.398 78.9194 226.775L78.8811 227.774L78.8428 228.773C94.431 229.37 109.006 237.455 115.712 254.534L116.643 254.169Z" fill="white" mask="url(#path-2-inside-1_48_76)"/>
</mask>
<g mask="url(#mask0_48_76)">
<path d="M51.5552 275.908C51.9084 276.679 52.2295 277.674 52.3901 278.926C53.3855 286.569 59.2296 288.238 66.1655 288.238C73.1978 288.238 81.964 286.697 81.964 296.138C81.9319 300.184 80.0052 303.17 84.0512 305.642C90.1522 309.367 101.84 308.5 107.749 304.615C111.409 302.207 116.547 300.055 114.235 306.895C112.887 310.844 110.253 314.473 108.327 318.198C106.208 322.276 103.542 325.519 100.331 328.794C97.9872 331.202 96.3817 334.092 93.6844 336.148C86.7806 341.382 77.7896 343.019 69.7298 345.652C58.9406 349.184 48.6331 355.478 37.0733 352.235C24.8391 348.799 11.5132 350.18 -0.528302 346.23C-6.46877 344.272 -10.1615 340.675 -9.26241 334.285C-8.45964 328.794 -4.70269 326.739 0.30657 325.647C5.95805 324.395 10.582 322.886 13.1829 317.234C15.4307 312.45 13.8894 305.482 13.5683 300.408C13.1187 293.505 12.3481 286.215 14.1142 279.44C15.5912 273.853 17.2289 268.266 19.6693 262.999C20.7932 260.527 21.9813 257.509 23.7795 255.453C26.5731 252.242 30.0089 250.797 33.798 249.096C34.9861 252.146 32.4493 256.995 31.9998 260.077C31.2612 265.376 31.4218 271.059 36.8164 273.211C42.0504 275.201 49.0185 270.578 51.5552 275.908Z" fill="url(#paint0_linear_48_76)"/>
<path d="M33.4861 249.783C33.7865 251.071 33.5096 252.694 33.031 254.442C32.7622 255.424 32.4457 256.396 32.1589 257.346C31.8762 258.282 31.6229 259.195 31.5046 260.006V260.009C31.1331 262.674 30.9764 265.501 31.6248 267.952C32.2811 270.433 33.7657 272.532 36.6316 273.675V273.676L36.6384 273.678C38.0396 274.211 39.5357 274.293 40.9949 274.221C42.4272 274.151 43.9398 273.921 45.2419 273.805C46.5886 273.686 47.7756 273.679 48.7664 273.994C49.6656 274.28 50.4274 274.839 50.9929 275.903L51.1033 276.123C51.4348 276.848 51.7408 277.793 51.8943 278.99V278.991C52.4103 282.953 54.2019 285.427 56.8054 286.885C59.3722 288.321 62.6738 288.738 66.1658 288.738C67.0524 288.738 67.9656 288.714 68.8767 288.69C69.7902 288.667 70.7031 288.644 71.6003 288.645C73.3996 288.648 75.104 288.75 76.5769 289.132C78.0441 289.511 79.2483 290.16 80.0916 291.23C80.9345 292.301 81.4636 293.854 81.4636 296.138C81.4556 297.111 81.3346 298.026 81.2126 298.914C81.0922 299.79 80.9677 300.66 80.9783 301.486C80.989 302.323 81.1377 303.143 81.5779 303.928C82.0175 304.711 82.7256 305.418 83.7908 306.069C86.9611 308.005 91.523 308.721 95.9988 308.481C100.478 308.241 104.972 307.039 108.023 305.033C108.924 304.44 109.909 303.868 110.838 303.449C111.78 303.024 112.612 302.78 113.226 302.787C113.526 302.79 113.741 302.853 113.89 302.951C114.031 303.044 114.154 303.194 114.232 303.456C114.399 304.021 114.334 305.041 113.761 306.734C113.103 308.662 112.128 310.523 111.064 312.383C110.009 314.227 108.852 316.094 107.883 317.968C105.794 321.986 103.166 325.189 99.9744 328.444L99.9734 328.445C98.7797 329.672 97.7667 331.029 96.7507 332.29C95.7251 333.563 94.6806 334.76 93.3826 335.749C89.9925 338.319 86.0761 340.016 81.9802 341.401C79.9327 342.094 77.8471 342.707 75.7625 343.312C73.6813 343.917 71.5993 344.515 69.575 345.177L69.574 345.178C66.8609 346.066 64.1791 347.127 61.5203 348.161C58.8555 349.197 56.2105 350.207 53.5466 351.006C48.2235 352.601 42.8614 353.34 37.2087 351.754C31.0385 350.021 24.5983 349.504 18.2458 348.928C11.875 348.349 5.58606 347.709 -0.373291 345.755C-3.29382 344.791 -5.6003 343.445 -7.06958 341.607C-8.52583 339.786 -9.19986 337.432 -8.76685 334.354L-8.76782 334.353C-8.3827 331.725 -7.30081 329.957 -5.74243 328.707C-4.16549 327.442 -2.06267 326.675 0.412842 326.136H0.414795C6.08158 324.88 10.9289 323.328 13.6375 317.443L13.6365 317.442C14.8123 314.936 14.984 311.898 14.8386 308.905C14.7656 307.402 14.6113 305.893 14.4568 304.452C14.3016 303.005 14.1465 301.631 14.0671 300.377V300.376C13.6151 293.434 12.8577 286.244 14.5984 279.566L14.5974 279.565C16.073 273.984 17.7022 268.433 20.1228 263.21L20.1248 263.206C21.2694 260.688 22.4203 257.767 24.156 255.783L24.157 255.782C26.7425 252.81 29.8904 251.394 33.4861 249.783Z" stroke="black" stroke-opacity="0.17"/>
</g>
<path d="M137.868 137.832C156.075 116.896 169.497 91.8815 185.906 69.4683C195.989 55.7249 205.269 41.2109 214.645 27.0501C220.585 18.0912 229.127 2.38912 241.714 2.6139C243.898 2.64601 245.889 3.57721 247.655 4.82953C251.54 7.59105 251.508 14.238 250.224 18.3481C245.118 34.8851 235.549 50.7157 227.521 66.0003C224.471 71.8445 221.356 77.6886 218.113 83.4364C208.64 100.295 198.75 116.928 190.016 134.203C186.612 140.947 183.401 147.754 180.479 154.69C178.649 158.993 175.823 162.653 174.699 167.149C173.543 171.773 163.107 158.768 162.465 157.741C160.089 153.791 157.905 151.704 153.667 150.291C150.616 149.295 134.272 146.951 135.588 141.749C135.942 140.401 136.777 139.084 137.868 137.832Z" fill="url(#paint1_linear_48_76)"/>
<path d="M241.731 1.61542C244.04 1.6499 246.105 2.57276 247.881 3.77069L248.233 4.01385L248.234 4.01483C250.497 5.62328 251.535 8.29654 251.87 10.9582C252.206 13.6337 251.859 16.4677 251.178 18.6467C246.036 35.2987 236.392 51.2602 228.407 66.465C225.354 72.313 222.234 78.1673 218.984 83.9279C210.089 99.7586 200.861 115.331 192.557 131.428L190.909 134.654C187.513 141.382 184.312 148.168 181.401 155.078L181.399 155.081C180.461 157.287 179.258 159.349 178.207 161.319C177.139 163.318 176.2 165.268 175.669 167.392C175.464 168.212 174.96 168.903 174.077 169.092C173.333 169.251 172.566 168.985 171.937 168.665C170.636 168.004 169.108 166.682 167.686 165.276C166.24 163.846 164.819 162.244 163.72 160.939C162.642 159.658 161.821 158.598 161.617 158.271L161.613 158.263L161.608 158.256C160.447 156.327 159.371 154.916 158.109 153.82C156.855 152.731 155.372 151.913 153.35 151.239V151.238C152.643 151.009 151.135 150.695 149.148 150.243C147.202 149.801 144.881 149.244 142.688 148.551C140.514 147.863 138.381 147.015 136.859 145.96C135.37 144.928 134.129 143.439 134.619 141.504L134.621 141.496H134.622C135.029 139.939 135.972 138.486 137.115 137.175C146.172 126.76 154.048 115.319 161.726 103.654C169.393 92.0056 176.875 80.1105 185.099 68.8771L186.977 66.2961C196.321 53.35 205.009 39.7912 213.811 26.4982V26.4973C216.738 22.0828 220.426 15.8118 224.939 10.7248C229.449 5.64112 234.989 1.49676 241.728 1.61542L241.729 1.61444V1.61542L241.732 1.61444L241.731 1.61542Z" stroke="white" stroke-opacity="0.5" stroke-width="2"/>
<mask id="path-8-outside-2_48_76" maskUnits="userSpaceOnUse" x="63.3416" y="138.2" width="113" height="128" fill="black">
<rect fill="white" x="63.3416" y="138.2" width="113" height="128"/>
<path d="M171.938 162.654C168.855 156.199 162.883 152.571 157.649 149.36C156.3 148.525 154.952 147.722 153.731 146.887C145.447 141.204 138.35 139.823 132.635 142.552C124.061 146.662 117.992 157.516 113.079 166.25C111.731 168.626 110.51 170.81 109.386 172.608C100.171 186.961 91.276 197.975 75.5418 208.572L74.1932 209.439C70.6289 211.719 65.7481 214.866 65.3627 220.549C65.2022 222.957 65.8765 226.586 70.083 230.15C74.6748 234.036 79.7162 236.412 84.597 238.692C86.331 239.494 88.0971 240.329 89.799 241.228C95.4183 244.183 100.524 248.068 105.951 252.21L109.162 254.619C109.997 255.229 110.831 256.063 111.731 256.866C114.235 259.21 117.35 262.165 121.396 263.288C122.777 263.674 123.997 263.866 125.089 263.866C129.456 263.866 131.639 261.169 132.827 259.724L133.309 259.146C137.997 253.655 140.309 246.302 142.332 239.815C143.295 236.669 144.227 233.682 145.318 231.178C147.052 227.228 148.69 223.246 150.328 219.265C153.924 210.466 157.328 202.15 161.727 194.218C162.754 192.324 164.264 190.365 165.869 188.31C170.589 182.081 177.108 173.539 171.938 162.654"/>
</mask>
<path d="M171.938 162.654C168.855 156.199 162.883 152.571 157.649 149.36C156.3 148.525 154.952 147.722 153.731 146.887C145.447 141.204 138.35 139.823 132.635 142.552C124.061 146.662 117.992 157.516 113.079 166.25C111.731 168.626 110.51 170.81 109.386 172.608C100.171 186.961 91.276 197.975 75.5418 208.572L74.1932 209.439C70.6289 211.719 65.7481 214.866 65.3627 220.549C65.2022 222.957 65.8765 226.586 70.083 230.15C74.6748 234.036 79.7162 236.412 84.597 238.692C86.331 239.494 88.0971 240.329 89.799 241.228C95.4183 244.183 100.524 248.068 105.951 252.21L109.162 254.619C109.997 255.229 110.831 256.063 111.731 256.866C114.235 259.21 117.35 262.165 121.396 263.288C122.777 263.674 123.997 263.866 125.089 263.866C129.456 263.866 131.639 261.169 132.827 259.724L133.309 259.146C137.997 253.655 140.309 246.302 142.332 239.815C143.295 236.669 144.227 233.682 145.318 231.178C147.052 227.228 148.69 223.246 150.328 219.265C153.924 210.466 157.328 202.15 161.727 194.218C162.754 192.324 164.264 190.365 165.869 188.31C170.589 182.081 177.108 173.539 171.938 162.654" fill="url(#paint2_linear_48_76)"/>
<path d="M157.649 149.36L156.596 151.06L156.603 151.065L157.649 149.36ZM153.731 146.887L152.6 148.536L152.602 148.538L153.731 146.887ZM132.635 142.552L131.773 140.748L131.77 140.749L132.635 142.552ZM113.079 166.25L114.819 167.237L114.822 167.23L113.079 166.25ZM109.386 172.608L111.069 173.688L111.076 173.678L111.082 173.668L109.386 172.608ZM75.5418 208.572L76.6233 210.254L76.6413 210.243L76.659 210.231L75.5418 208.572ZM74.1932 209.439L75.2709 211.124L75.2747 211.121L74.1932 209.439ZM65.3627 220.549L63.3673 220.414L63.3672 220.416L65.3627 220.549ZM70.083 230.15L68.7901 231.676L68.7911 231.677L70.083 230.15ZM84.597 238.692L83.7506 240.504L83.7568 240.507L84.597 238.692ZM89.799 241.228L88.8647 242.997L88.8683 242.999L89.799 241.228ZM105.951 252.21L104.737 253.8L104.744 253.805L104.751 253.81L105.951 252.21ZM109.162 254.619L107.962 256.219L107.972 256.226L107.982 256.233L109.162 254.619ZM111.731 256.866L113.097 255.406L113.08 255.39L113.063 255.374L111.731 256.866ZM121.396 263.288L121.933 261.362L121.931 261.361L121.396 263.288ZM132.827 259.724L131.291 258.444L131.282 258.454L132.827 259.724ZM133.309 259.146L131.788 257.847L131.78 257.857L131.773 257.866L133.309 259.146ZM142.332 239.815L144.241 240.411L144.244 240.401L142.332 239.815ZM145.318 231.178L143.487 230.374L143.485 230.379L145.318 231.178ZM150.328 219.265L152.177 220.025L152.179 220.021L150.328 219.265ZM161.727 194.218L163.476 195.188L163.48 195.18L163.485 195.172L161.727 194.218ZM165.869 188.31L167.445 189.541L167.454 189.53L167.463 189.518L165.869 188.31ZM171.938 162.654L173.743 161.792C170.365 154.72 163.842 150.813 158.695 147.655L157.649 149.36L156.603 151.065C161.924 154.329 167.346 157.679 170.133 163.516L171.938 162.654ZM157.649 149.36L158.701 147.659C157.31 146.798 156.031 146.037 154.861 145.237L153.731 146.887L152.602 148.538C153.872 149.407 155.29 150.252 156.596 151.06L157.649 149.36ZM153.731 146.887L154.863 145.238C146.331 139.385 138.436 137.566 131.773 140.748L132.635 142.552L133.496 144.357C138.265 142.08 144.562 143.022 152.6 148.536L153.731 146.887ZM132.635 142.552L131.77 140.749C127.055 143.009 123.16 147.05 119.878 151.476C116.586 155.914 113.78 160.924 111.336 165.269L113.079 166.25L114.822 167.23C117.291 162.842 119.976 158.058 123.091 153.859C126.214 149.646 129.641 146.206 133.499 144.356L132.635 142.552ZM113.079 166.25L111.34 165.263C109.977 167.663 108.785 169.796 107.69 171.548L109.386 172.608L111.082 173.668C112.235 171.824 113.484 169.589 114.819 167.237L113.079 166.25ZM109.386 172.608L107.703 171.527C98.577 185.742 89.8582 196.519 74.4246 206.913L75.5418 208.572L76.659 210.231C92.6939 199.432 101.764 188.181 111.069 173.688L109.386 172.608ZM75.5418 208.572L74.4603 206.889L73.1117 207.756L74.1932 209.439L75.2747 211.121L76.6233 210.254L75.5418 208.572ZM74.1932 209.439L73.1155 207.754C69.726 209.922 63.8312 213.572 63.3673 220.414L65.3627 220.549L67.3582 220.684C67.665 216.159 71.5317 213.515 75.2709 211.124L74.1932 209.439ZM65.3627 220.549L63.3672 220.416C63.1671 223.417 64.0692 227.676 68.7901 231.676L70.083 230.15L71.3759 228.624C67.6838 225.496 67.2373 222.498 67.3583 220.682L65.3627 220.549ZM70.083 230.15L68.7911 231.677C73.6141 235.758 78.8899 238.233 83.7506 240.504L84.597 238.692L85.4434 236.88C80.5425 234.59 75.7356 232.313 71.3749 228.623L70.083 230.15ZM84.597 238.692L83.7568 240.507C85.485 241.307 87.2116 242.123 88.8647 242.997L89.799 241.228L90.7332 239.46C88.9826 238.535 87.177 237.682 85.4373 236.877L84.597 238.692ZM89.799 241.228L88.8683 242.999C94.3135 245.861 99.2868 249.64 104.737 253.8L105.951 252.21L107.164 250.62C101.761 246.496 96.5232 242.504 90.7296 239.458L89.799 241.228ZM105.951 252.21L104.751 253.81L107.962 256.219L109.162 254.619L110.362 253.019L107.151 250.61L105.951 252.21ZM109.162 254.619L107.982 256.233C108.712 256.767 109.373 257.442 110.399 258.358L111.731 256.866L113.063 255.374C112.29 254.685 111.281 253.69 110.342 253.004L109.162 254.619ZM111.731 256.866L110.364 258.326C112.801 260.608 116.263 263.938 120.861 265.215L121.396 263.288L121.931 261.361C118.437 260.391 115.669 257.813 113.097 255.406L111.731 256.866ZM121.396 263.288L120.858 265.215C122.36 265.634 123.766 265.866 125.089 265.866V263.866V261.866C124.227 261.866 123.193 261.714 121.933 261.362L121.396 263.288ZM125.089 263.866V265.866C130.448 265.866 133.159 262.47 134.372 260.994L132.827 259.724L131.282 258.454C130.12 259.868 128.463 261.866 125.089 261.866V263.866ZM132.827 259.724L134.364 261.005L134.845 260.427L133.309 259.146L131.773 257.866L131.291 258.444L132.827 259.724ZM133.309 259.146L134.83 260.445C139.83 254.589 142.242 246.822 144.241 240.411L142.332 239.815L140.423 239.22C138.376 245.782 136.165 252.721 131.788 257.847L133.309 259.146ZM142.332 239.815L144.244 240.401C145.214 237.234 146.113 234.359 147.152 231.977L145.318 231.178L143.485 230.379C142.34 233.006 141.377 236.103 140.42 239.23L142.332 239.815ZM145.318 231.178L147.15 231.982C148.895 228.007 150.541 224.004 152.177 220.025L150.328 219.265L148.478 218.504C146.839 222.489 145.21 226.449 143.487 230.374L145.318 231.178ZM150.328 219.265L152.179 220.021C155.783 211.205 159.144 202.999 163.476 195.188L161.727 194.218L159.978 193.248C155.512 201.301 152.065 209.728 148.476 218.508L150.328 219.265ZM161.727 194.218L163.485 195.172C164.419 193.45 165.819 191.623 167.445 189.541L165.869 188.31L164.293 187.079C162.708 189.108 161.09 191.198 159.969 193.265L161.727 194.218ZM165.869 188.31L167.463 189.518C172.071 183.436 179.498 173.909 173.745 161.796L171.938 162.654L170.131 163.512C174.718 173.169 169.108 180.725 164.275 187.102L165.869 188.31Z" fill="white" fill-opacity="0.5" mask="url(#path-8-outside-2_48_76)"/>
<defs>
<linearGradient id="paint0_linear_48_76" x1="-9.39673" y1="300.91" x2="114.812" y2="300.91" gradientUnits="userSpaceOnUse">
<stop stop-color="#00BBA7"/>
<stop offset="1" stop-color="#00AEFF"/>
</linearGradient>
<linearGradient id="paint1_linear_48_76" x1="115.197" y1="118.869" x2="241.033" y2="118.869" gradientUnits="userSpaceOnUse">
<stop stop-color="#131A1D"/>
<stop offset="1" stop-color="#00534F"/>
</linearGradient>
<linearGradient id="paint2_linear_48_76" x1="65.3416" y1="202.291" x2="173.837" y2="202.291" gradientUnits="userSpaceOnUse">
<stop stop-color="#00BBA7"/>
<stop offset="1" stop-color="#00AEFF"/>
</linearGradient>
</defs>
</svg>
