<svg width="139" height="242" viewBox="0 0 139 242" fill="none" xmlns="http://www.w3.org/2000/svg">
<g filter="url(#filter0_d_48_43)">
<path d="M11.1508 50.144C8.44285 47.6207 6.27081 44.5777 4.76436 41.1967C3.25791 37.8158 2.44788 34.166 2.38259 30.4652C2.31729 26.7643 2.99808 23.0883 4.38432 19.6563C5.77057 16.2243 7.8339 13.1066 10.4512 10.4893C13.0685 7.87202 16.1861 5.80871 19.6181 4.42246C23.0501 3.03622 26.7262 2.35544 30.427 2.42073C34.1278 2.48603 37.7776 3.29607 41.1586 4.80252C44.5396 6.30898 47.5825 8.48098 50.1058 11.189L128.071 89.1357C133.238 94.3045 136.141 101.314 136.141 108.622C136.141 115.931 133.238 122.94 128.071 128.109L50.1242 206.074C47.5652 208.634 44.5269 210.666 41.1829 212.052C37.8389 213.438 34.2547 214.152 30.6348 214.152C27.0149 214.153 23.4304 213.441 20.0857 212.057C16.7411 210.672 13.7019 208.642 11.1416 206.083C8.58141 203.524 6.55028 200.486 5.16423 197.142C3.77818 193.798 3.06435 190.214 3.06349 186.594C3.06264 182.974 3.77478 179.39 5.15926 176.045C6.54373 172.7 8.5734 169.661 11.1324 167.101L69.6017 108.632L11.1508 50.144Z" fill="url(#paint0_linear_48_43)" shape-rendering="crispEdges"/>
<path d="M30.4447 1.42133C34.2798 1.489 38.0622 2.328 41.5658 3.8891C45.0586 5.44542 48.2028 7.68769 50.8129 10.4819L128.778 88.4282V88.4291C134.132 93.7854 137.141 101.049 137.141 108.622C137.141 116.196 134.132 123.46 128.778 128.816L50.8314 206.782L50.8304 206.781C48.1787 209.434 45.0309 211.539 41.5658 212.975C38.1005 214.411 34.3863 215.152 30.6351 215.153C26.8841 215.154 23.1694 214.416 19.7035 212.981C16.2375 211.546 13.088 209.442 10.4349 206.79C7.78182 204.139 5.67694 200.99 4.2406 197.525C2.8043 194.06 2.06473 190.345 2.06384 186.594C2.06297 182.843 2.80103 179.128 4.23572 175.663C5.67041 172.197 7.77334 169.047 10.4252 166.394L68.1869 108.631L10.4437 50.851H10.4427C7.64882 48.241 5.40717 45.0965 3.85095 41.6039C2.28985 38.1003 1.45085 34.3179 1.38318 30.4828C1.31551 26.6477 2.02086 22.8382 3.4574 19.2817C4.89394 15.7252 7.03231 12.4949 9.74451 9.78265C12.4567 7.07045 15.6871 4.93209 19.2435 3.49554C22.8001 2.059 26.6096 1.35366 30.4447 1.42133Z" stroke="white" stroke-opacity="0.5" stroke-width="2" shape-rendering="crispEdges"/>
</g>
<defs>
<filter id="filter0_d_48_43" x="0.378296" y="0.416443" width="137.763" height="240.736" filterUnits="userSpaceOnUse" colorInterpolationFilters="sRGB">
<feFlood floodOpacity="0" result="BackgroundImageFix"/>
<feColorMatrix in="SourceAlpha" type="matrix" values="0 0 0 0 0 0 0 0 0 0 0 0 0 0 0 0 0 0 127 0" result="hardAlpha"/>
<feOffset dy="25"/>
<feComposite in2="hardAlpha" operator="out"/>
<feColorMatrix type="matrix" values="0 0 0 0 0 0 0 0 0 0 0 0 0 0 0 0 0 0 0.1 0"/>
<feBlend mode="normal" in2="BackgroundImageFix" result="effect1_dropShadow_48_43"/>
<feBlend mode="normal" in="SourceGraphic" in2="effect1_dropShadow_48_43" result="shape"/>
</filter>
<linearGradient id="paint0_linear_48_43" x1="2.3783" y1="107.866" x2="136.141" y2="107.866" gradientUnits="userSpaceOnUse">
<stop stop-color="#00BBA7"/>
<stop offset="1" stop-color="#00AEFF"/>
</linearGradient>
</defs>
</svg>
